<?xml version="1.0" encoding="UTF-8"?>
<!DOCTYPE svg PUBLIC "-//W3C//DTD SVG 1.1//EN" "http://www.w3.org/Graphics/SVG/1.1/DTD/svg11.dtd">
<!-- Creator: CorelDRAW 2020 (64-Bit) -->
<svg xmlns="http://www.w3.org/2000/svg" xml:space="preserve" width="50.495mm" height="42.7668mm" version="1.1" style="shape-rendering:geometricPrecision; text-rendering:geometricPrecision; image-rendering:optimizeQuality; fill-rule:evenodd; clip-rule:evenodd"
viewBox="0 0 5049.5 4276.68"
 xmlns:xlink="http://www.w3.org/1999/xlink"
 xmlns:xodm="http://www.corel.com/coreldraw/odm/2003">
 <defs>
  <style type="text/css">
   <![CDATA[
    .fil0 {fill:#333333}
   ]]>
  </style>
 </defs>
 <g id="Layer_x0020_1">
  <metadata id="CorelCorpID_0Corel-Layer"/>
  <path class="fil0" d="M5042.75 202.39c-0.34,41.71 -3.92,68.93 -33.81,112.78 -67.59,99.17 -181.95,80.18 -295.96,80.18l-432.91 -0.1c-52.57,-0.72 -46.09,-13.7 -62.21,66.6 -51.42,256.12 -116.67,521.43 -166.56,776.37 -51.57,263.47 -124.94,559.67 -176.87,822.73 -40.45,204.89 -93.39,416.11 -133.13,619.15l-43.38 209.1c0,20.18 180.34,308.66 180.34,407.06 0,78.95 -23.82,140.06 -96.13,182.1 -29.88,17.38 -53.68,24.39 -99.59,24.07 -41.22,-0.29 -82.51,-0.07 -123.74,-0.07l0 5.15c72.87,0 169.05,66.61 217.81,117.12 43.53,45.09 101.65,147.05 101.65,233.26 0,81.83 0.19,129.02 -37.65,204.51 -144.63,288.51 -554.53,289 -701,3.43 -89.92,-175.33 -30.5,-402.62 154.16,-514.2 27.07,-16.36 86.39,-44.12 125.91,-44.12l-2581.44 0c41.73,0 102.64,28.19 129.88,45.3 344.76,216.53 200.53,727.59 -212.33,727.59 -54.26,0 -113.31,-18.09 -149.51,-35.98 -89.71,-44.33 -144.06,-97.98 -188.91,-187.23 -50.23,-99.98 -48.63,-216.31 -7.61,-318.62 42.34,-105.59 143.86,-195.93 254.37,-224.82l24.34 -6.58c10.8,-3.94 4.08,-0.64 10.65,-4.81 -111.79,0 -222.86,18.67 -288.37,-87.77 -82.08,-133.36 3.51,-304.75 174.89,-303.95 922.38,4.32 1854.52,0.12 2777.37,0.12 -63.58,-120.14 -90.3,-160.82 -56.8,-298.96 4.7,-19.39 19.66,-89.98 25.88,-102.94l-1735.51 -201.86c-197.46,-21.6 -458.99,-60.26 -650,-76.52l-433.39 -50.95c-84.57,-9.81 -365.7,-31.31 -420.05,-64.29 -46.79,-28.4 -99.93,-86.05 -99.93,-147.4l0 -1597.31c0,-32.71 9.44,-53.99 21.57,-76.32 36.03,-66.3 102.4,-104.02 189.69,-104.02l3627.42 0c0,-40.8 38.17,-211.79 53.61,-250.39 27.33,-68.3 81.17,-136.05 173.11,-136.05l798.65 0c96.98,0 185.49,91.09 185.49,170.04l0 28.6z"/>
 </g>
</svg>
