<?xml version="1.0" encoding="UTF-8"?>
<!DOCTYPE svg PUBLIC "-//W3C//DTD SVG 1.1//EN" "http://www.w3.org/Graphics/SVG/1.1/DTD/svg11.dtd">
<!-- Creator: CorelDRAW 2020 (64-Bit) -->
<svg xmlns="http://www.w3.org/2000/svg" xml:space="preserve" width="65.8722mm" height="13.174mm" version="1.1" style="shape-rendering:geometricPrecision; text-rendering:geometricPrecision; image-rendering:optimizeQuality; fill-rule:evenodd; clip-rule:evenodd"
viewBox="0 0 6587.22 1317.4"
 xmlns:xlink="http://www.w3.org/1999/xlink"
 xmlns:xodm="http://www.corel.com/coreldraw/odm/2003">
 <defs>
  <style type="text/css">
   <![CDATA[
    .fil0 {fill:#333333}
   ]]>
  </style>
 </defs>
 <g id="Layer_x0020_1">
  <metadata id="CorelCorpID_0Corel-Layer"/>
  <g id="_2274296375184">
   <path class="fil0" d="M5263.01 176.7l0 974.1c9.36,18.59 8.09,96.98 105.92,149.31 10.26,5.49 19.66,9.03 30.9,12.5 10.19,3.15 24.95,4.15 33.39,8.55l974.26 0c11.38,-5.68 30.18,-3.97 64.59,-20.86 47.27,-23.2 84.45,-66.26 100.25,-118.23 2.77,-9.12 5.13,-28.32 8.14,-35.39l0 -969.98c-8.9,-17.7 -9.53,-99.75 -106.23,-151.57 -10.8,-5.8 -19.04,-8.86 -31.11,-12.7 -10.25,-3.26 -24.3,-4.2 -33.09,-8.72l-976.59 0c-14.06,7.24 -102.33,12.12 -149.66,108.33 -5.13,10.42 -8.57,18.84 -12.37,31.29 -3.1,10.16 -4.01,24.65 -8.4,33.37zm658.7 444.57l-0.02 2.52c-44.58,0 -89.18,0.12 -133.76,-0.02 -25.54,-0.07 -38.73,-0.32 -51.32,15.8 -11.04,14.14 -7.89,39.35 -7.89,61.46 0.02,93.28 2.81,77.3 192.92,77.3 0.79,77.02 0.09,154.42 0.09,231.49 0,149.51 -15.99,156.98 77.2,156.97 94.11,-0.02 77.21,-7.65 77.21,-154.4 0,-77.77 0.87,-156.03 0.03,-233.73 52.66,-3.02 113.64,-0.34 167.21,-0.33 29.85,0.01 52.24,4.03 66.56,-18.41 6.87,-10.75 14.97,-50.28 18.94,-66.06 18.91,-74.96 -17.17,-70.07 -82.92,-70.07 -54.37,0 -116.4,2.77 -169.81,-0.38 -0.06,-38.51 -4.57,-139.56 1.91,-170.17 18.87,-89.11 131.95,-53.01 195.79,-61.48 28.5,-3.78 33.97,-26.32 33.92,-53.52 -0.17,-90 8.05,-100.41 -74.68,-100.4 -55.94,0 -110.28,-3.79 -158.57,13.79 -39.29,14.31 -77.78,41.54 -101.89,73.13 -66.4,86.97 -50.92,170.91 -50.92,296.51z"/>
   <g>
    <path class="fil0" d="M2628.12 302.55l0 719.78c11.11,25.44 5.39,113.56 95.48,203.37 90.26,89.97 177.49,84.55 201.32,95.46l723.85 0c24.83,-11.37 109.6,-4.82 201.34,-95.44 89.05,-87.97 84.05,-176.58 95.46,-201.36l0 -723.79c-10.29,-22.56 -3.47,-52.85 -34.38,-115.89 -16.63,-33.91 -39.26,-63.99 -62.38,-86.79 -90.61,-89.38 -178.53,-83.89 -202.08,-94.17l-719.78 0c-16.85,7.35 -52.69,3.48 -116.19,33.47 -62.96,29.75 -118.64,85.37 -149.25,149.13 -30.31,63.16 -24.52,95.91 -33.39,116.23zm308.91 -165.95c-76,8.21 -128.84,50.18 -156.69,106.84 -30.83,62.76 -20.46,164.37 -20.46,244.02 0,46.85 -2.4,492.19 0.97,526.04 7.22,72.29 50.94,128.18 107.02,155.4 64,31.07 163.64,20.48 244,20.48 47.31,0 491.64,2.42 526.03,-1.01 73.47,-7.33 128.52,-51.66 155.44,-106.92 30.94,-63.49 20.46,-164.37 20.46,-244.04 0,-46.31 2.39,-492.72 -1,-526.03 -7.31,-71.68 -51.1,-129.01 -106.88,-155.53 -64.57,-30.7 -163.36,-20.35 -244.1,-20.35 -45.92,0 -491.73,-2.46 -524.79,1.1z"/>
    <path class="fil0" d="M3256.32 334.68c-185.99,18.43 -315.19,176.63 -297.29,359.68 16.92,172.93 166.74,315.14 360.22,295.8 172.5,-17.25 314.57,-166.26 295.33,-359.86 -17.07,-171.82 -165.46,-314.71 -358.26,-295.62zm10.06 131.28c-106.6,11.65 -188.06,99.63 -176.17,218.18 10.57,105.26 101.38,186.7 219.18,174.83 103.28,-10.4 186.08,-100.86 174.05,-218.23 -10.69,-104.21 -101.48,-187.4 -217.06,-174.78z"/>
    <path class="fil0" d="M3596.55 271.33c-86.68,29.97 -38.7,151.11 40.9,123.95 30.14,-10.29 53.95,-44.98 40.97,-83.48 -10.54,-31.26 -45.08,-53.19 -81.87,-40.47z"/>
   </g>
   <g>
    <path class="fil0" d="M658.18 3.71c360.35,0 652.48,294.42 652.48,657.59 0,363.18 -292.13,657.59 -652.48,657.59 -121.6,0 -235.42,-33.51 -332.87,-91.88 -4.38,-2.62 -8.73,-5.3 -13.04,-8.02l-319.06 102.17 114.56 -306.53c-9.82,-15.51 -19.01,-31.46 -27.54,-47.8 -47.6,-91.29 -74.55,-195.24 -74.55,-305.53 0,-363.17 292.13,-657.59 652.5,-657.59zm-0.97 102.55c304.26,0 550.91,248.58 550.91,555.22 0,306.64 -246.65,555.22 -550.91,555.22 -102.67,0 -218.8,-48.49 -301.09,-97.77 -3.69,-2.22 -7.36,-4.47 -11,-6.77l-229.33 86.27 96.72 -218.45c-8.29,-13.08 -36.08,-46.74 -43.28,-60.54 -40.19,-77.07 -62.94,-164.84 -62.94,-257.96 0,-306.64 246.65,-555.22 550.92,-555.22z"/>
    <path class="fil0" d="M271.27 455.78c0,56.09 7.56,93.12 31.87,141.73 8.47,16.93 16.4,32.79 26.18,47.63 38.89,59.01 65.78,94.41 109.83,147.5l17.87 19.86c8.57,9.81 26.99,28.69 36.78,36.94l80.78 66.62c23.91,16.63 65.18,43.36 92.69,54.62 7.92,3.25 15.99,7.31 24.87,11.08 51.75,21.98 154.74,59.25 205.94,59.25 13.87,0 27.05,-4.88 39.56,-6.6 14.9,-2.05 24.07,-4.9 36.34,-9.85 21.98,-8.87 54.6,-28.06 70.55,-44.22 13.37,-13.54 20.24,-17.34 30.63,-39.71 9.48,-20.42 15.92,-55.71 15.92,-83.79 0,-23.63 -16.63,-27.75 -39.26,-37.89 -17.51,-7.85 -34.47,-17.73 -52.38,-26.4 -22.39,-10.83 -92.72,-45.88 -109.9,-45.88 -16.98,0 -21.85,12.22 -29.27,22.14 -20.75,27.71 -38.19,46.94 -59.25,72.83 -15.53,19.09 -36.11,6.71 -49.58,1.18 -21.56,-8.84 -49.82,-22.69 -69.73,-34.72 -14.64,-8.85 -28.19,-17.51 -41.52,-27.01l-28.66 -22.75c-27.38,-24.05 -46.24,-41.59 -69.09,-69.79 -3.06,-3.78 -5.46,-6.82 -8.37,-10.5 -9.41,-11.89 -54.43,-72.32 -54.43,-86.29 0,-11.54 25.49,-36.62 37.04,-50.45 7.04,-8.42 12.54,-14.75 18.37,-24.52 19.59,-32.83 14.46,-38.03 2.41,-67.65l-60.63 -145.45c-4.33,-8.6 -10.59,-17.86 -18.71,-22.46 -9.41,-5.33 -24.86,-1.43 -37.79,-3.22 -30.53,-4.21 -47.52,-0.28 -66.78,12.83 -27.35,18.62 -57.36,67.54 -68.65,96.05 -6.3,15.91 -13.63,46.76 -13.63,68.89z"/>
   </g>
  </g>
 </g>
</svg>
