<?xml version="1.0" encoding="UTF-8"?>
<!DOCTYPE svg PUBLIC "-//W3C//DTD SVG 1.1//EN" "http://www.w3.org/Graphics/SVG/1.1/DTD/svg11.dtd">
<!-- Creator: CorelDRAW 2020 (64-Bit) -->
<svg xmlns="http://www.w3.org/2000/svg" xml:space="preserve" width="25.3998mm" height="25.3998mm" version="1.1" style="shape-rendering:geometricPrecision; text-rendering:geometricPrecision; image-rendering:optimizeQuality; fill-rule:evenodd; clip-rule:evenodd"
viewBox="0 0 2539.98 2539.98"
 xmlns:xlink="http://www.w3.org/1999/xlink"
 xmlns:xodm="http://www.corel.com/coreldraw/odm/2003">
 <defs>
  <style type="text/css">
   <![CDATA[
    .str0 {stroke:#373435;stroke-width:20;stroke-miterlimit:22.9256}
    .fil1 {fill:none}
    .fil0 {fill:#727376;fill-opacity:0.501961}
   ]]>
  </style>
 </defs>
 <g id="Layer_x0020_1">
  <metadata id="CorelCorpID_0Corel-Layer"/>
  <g id="_1815978268768">
   <path class="fil0" d="M226.84 700.07l0 1139.84c17.6,40.29 8.53,179.83 151.2,322.05 142.94,142.48 281.07,133.9 318.8,151.18l1146.3 0c39.32,-18 173.56,-7.63 318.84,-151.15 141.02,-139.3 133.1,-279.62 151.16,-318.85l0 -1146.2c-16.28,-35.73 -5.49,-83.7 -54.44,-183.52 -26.33,-53.7 -62.17,-101.34 -98.78,-137.45 -143.49,-141.54 -282.72,-132.85 -320.01,-149.13l-1139.84 0c-26.69,11.65 -83.44,5.51 -184,53.01 -99.71,47.11 -187.88,135.19 -236.35,236.16 -48.01,100.02 -38.83,151.89 -52.88,184.06zm489.19 -262.79c-120.36,13 -204.03,79.46 -248.13,169.19 -48.83,99.39 -32.4,260.29 -32.4,386.43 0,74.18 -3.81,779.43 1.54,833.04 11.42,114.47 80.65,202.98 169.47,246.09 101.35,49.19 259.13,32.42 386.4,32.42 74.91,0 778.56,3.84 833.02,-1.59 116.35,-11.61 203.51,-81.82 246.15,-169.32 49,-100.55 32.4,-260.3 32.4,-386.47 0,-73.34 3.79,-780.26 -1.59,-833.01 -11.58,-113.51 -80.92,-204.3 -169.25,-246.3 -102.26,-48.61 -258.69,-32.23 -386.56,-32.23 -72.71,0 -778.71,-3.9 -831.05,1.75z"/>
   <path class="fil0" d="M1221.65 750.96c-294.53,29.18 -499.13,279.71 -470.78,569.58 26.79,273.86 264.05,499.06 570.45,468.42 273.16,-27.3 498.14,-263.28 467.68,-569.87 -27.04,-272.08 -262.03,-498.37 -567.35,-468.13zm15.93 207.9c-168.81,18.43 -297.81,157.77 -278.97,345.5 16.73,166.69 160.53,295.66 347.09,276.86 163.55,-16.48 294.67,-159.73 275.61,-345.59 -16.92,-165.03 -160.69,-296.77 -343.73,-276.77z"/>
   <path class="fil0" d="M1760.45 650.64c-137.27,47.46 -61.3,239.3 64.76,196.27 47.72,-16.28 85.44,-71.22 64.88,-132.19 -16.69,-49.5 -71.39,-84.23 -129.64,-64.08z"/>
  </g>
  <rect class="fil1 str0" x="-0.03" y="-0.04" width="2540" height="2540"/>
 </g>
</svg>
