<?xml version="1.0" encoding="UTF-8"?>
<!DOCTYPE svg PUBLIC "-//W3C//DTD SVG 1.1//EN" "http://www.w3.org/Graphics/SVG/1.1/DTD/svg11.dtd">
<!-- Creator: CorelDRAW 2020 (64-Bit) -->
<svg xmlns="http://www.w3.org/2000/svg" xml:space="preserve" width="37.475mm" height="37.5056mm" version="1.1" style="shape-rendering:geometricPrecision; text-rendering:geometricPrecision; image-rendering:optimizeQuality; fill-rule:evenodd; clip-rule:evenodd"
viewBox="0 0 3747.5 3750.56"
 xmlns:xlink="http://www.w3.org/1999/xlink"
 xmlns:xodm="http://www.corel.com/coreldraw/odm/2003">
 <defs>
  <style type="text/css">
   <![CDATA[
    .str0 {stroke:#E7B0B0;stroke-width:141.11;stroke-miterlimit:22.9256}
    .fil0 {fill:#FEFEFE}
    .fil4 {fill:#010101}
    .fil8 {fill:#040404}
    .fil7 {fill:#050505}
    .fil9 {fill:#080808}
    .fil5 {fill:#B04544}
    .fil3 {fill:#B14645}
    .fil6 {fill:#B14847}
    .fil1 {fill:#E8B1B1}
    .fil10 {fill:#FDFDFD}
    .fil2 {fill:#FEFEFE}
   ]]>
  </style>
 </defs>
 <g id="Layer_x0020_1">
  <metadata id="CorelCorpID_0Corel-Layer"/>
  <g id="_2312714517296">
   <ellipse class="fil0 str0" cx="1873.75" cy="1879.6" rx="1778" ry="1779.45"/>
   <path class="fil1" d="M1138.01 1360.65c-9.23,-18.28 8.12,-52.29 45.36,-62.2 31.32,-8.34 75.48,-2.93 100.27,-18.38 44.84,-27.93 43.18,-74.16 116.45,-117.73 -8.77,18.03 -14.32,18.83 -25.16,36.84 -20.02,33.24 -42.44,99.41 -57.57,114.23 -23.96,23.47 -67.69,8.79 -102.34,8.45 -72.75,-0.72 -61.27,16.2 -77.01,38.79zm385.69 -0.84c-13.35,-8.57 -5.15,0.94 -14.09,-15.76 -2.89,-5.4 -5.86,-14.75 -8.38,-21.17 -16.33,-41.71 -53.27,-102.36 -50.91,-123.25 2.28,-20.05 37.17,-55.86 50.41,-64.25 23.72,-15.01 57.4,-16.84 86.45,-22.52 -24.44,25.63 -49.82,10.65 -72.47,36.01 -14.66,16.42 -14.17,15.36 -30.02,29.85 -10.95,10.01 -12.58,14.7 -26,24.45 6.03,33.07 46.09,81.64 65.01,156.64zm104.67 -337.6c-32.14,31.32 -102.76,57.64 -145.09,17.65 -49.88,2 -94.08,13.06 -120.42,40.38 -19.44,20.16 -29.03,45.63 -55.82,68.64l-23.5 22.1c-11.7,19.79 -18.88,34.27 -47.64,43.22 -13.05,4.06 -30.19,3.95 -44.89,3.09 -18.66,-1.09 -21.9,0.09 -29.19,-12.24 -46.28,11.51 -68.42,29.09 -94.28,60.37 -90.61,109.59 -60.46,82.68 -63.4,165.78 -0.93,26.11 -8.79,46.69 -12.11,67.47 -8.22,51.54 27.54,80.91 33.79,116.25 -17.25,16.44 -24.77,15.79 -36.44,29.32 -12.8,14.83 -8.3,23.78 -28.16,37.27 -32.28,21.91 -57.12,16.52 -86.74,49.6 -32.76,36.61 -55.15,156.48 -56.09,217.79l151.98 109.97 -57.88 -12.31c6.72,16.7 14.53,26.48 21.91,44.99 2.36,5.91 6.25,19.75 6.96,21.45 9.98,23.85 -4.01,11.32 16.95,20.22 31.77,-0.3 41.45,10.8 84.38,4.05 100.51,-15.8 249.21,-65.69 348.73,-96.93 24.22,-7.6 43.92,-14.63 66.96,-22.08 7.27,-2.36 24.53,-8.29 32.84,-9.65 30.22,-4.96 30.75,4.68 32.15,5.92l-70.49 25.95 108.76 5.22c-11.14,32.23 -200.74,35.3 -248.5,47.05 -105.72,26.03 -196.71,81.25 -216.79,83.66 -1.43,0.73 -3.47,0.51 -4.08,2.59l-28 26.74c-49.37,48.98 -10.52,87.45 0.11,153.1 11.64,71.81 -29.05,171.82 17.47,226.03 51.93,60.53 217.62,66.73 289.89,95.71 47.56,19.07 58.56,20.82 85.89,-15.14 19.51,9.51 46.59,48.79 94.75,4.74 10.67,-9.75 15.38,-15.04 26.38,-22.51 -7.64,-7.19 -12.03,-10.27 -3.44,-36.93 43.53,-134.92 29.11,-54.86 59.89,-237.35 8.53,-50.57 20.6,-89.71 46.87,-125.32 51.01,-69.12 80.92,-40.04 97.19,-69.69l-32.92 -20.69c-62.69,-27.44 -22.86,-14.06 -57.42,-49.65 -13.38,-13.77 -13.51,-6.77 -26.56,-22.24 -15.87,10.72 -65.06,101.11 -87.99,125.65 -35.57,38.08 -69.2,63.02 -113.16,100.37 -172.29,146.42 -13,133.92 -40.91,291.47 -17.92,-25.83 -11.21,-72.17 -31.87,-111.45 -21.34,-40.59 -39.36,-51.65 -29.9,-111.53 -49.1,5.76 -146.24,27.78 -192.18,41.44 8.08,131 -11.97,101.84 92.55,140.32 30.42,11.2 56.69,26.51 77.57,34.52l-145.21 -37.72c-34.88,-6.62 -39.81,-15.48 -41.05,-53.6 -0.86,-26.65 -3.14,-64.25 0.06,-89.45 37.2,-23.57 123.07,-31.81 174.65,-44.28 48.82,-11.8 39.07,-10.84 71.22,-35.63 20.52,-15.83 43.13,-28.28 62.57,-44.48 20.15,-16.81 30.23,-32.47 53.81,-52.85l102.66 -110.7c39.56,-46.72 37.66,-63.27 45.58,-45.79 3.68,-2.16 26.08,3.2 2.57,-55.18 -7.98,-19.84 -14.07,-28.86 -31.84,-39.24 -16.31,-9.53 -34.04,-13.6 -52.55,-18.62 -7.36,-2 -20.37,-4.59 -27.51,-7.59 -17.74,-7.46 -17.2,-10.6 -22.54,-17.5 -107.25,-5.2 -74.35,-93.4 -223.92,-19.45 -47.6,23.53 -194.67,62.72 -227.41,-20.94 67.99,43.74 36.84,48.27 132.26,26.45 36.6,-8.37 111.63,-31.32 138.87,-48.09 -14.92,-11.24 -16.91,-2.26 -63.71,-40.17 -113.9,-92.25 -143.44,2.01 -203.86,19.91 12.49,-20.01 63.67,-67.69 96.19,-77.04 48.61,-13.99 138.68,62.8 175.09,78.46l156.84 62.2c0.12,0.03 18.53,5.02 19.41,5.4 22.19,9.83 -3.75,-12.14 13.08,9.08 9.81,-9.39 7.43,8.04 12.46,-21.9 -23.03,-5.17 -16.06,-17.72 -34.36,-61.73 -7.59,-18.22 -23.46,-49.54 -33.42,-61.46 -54.12,-8.52 -89.78,3.23 -139.93,-20.28 -62.34,-29.24 -45.49,-50.9 -91.41,-68.84 -48.11,-18.79 -92.75,-8.72 -139.99,-20.31 -12.7,-3.12 -82.88,-41.32 -81.27,-76.23 25.6,19.61 56.78,61.9 104.07,66.51 70.47,6.88 72.95,-4.75 140.61,20.55 32.02,-146.27 -129.16,-105.89 -138.86,-134.14 -0.79,-2.28 -2.7,-2.3 -3.91,-3.58 51.71,5.28 135.01,-4.04 153.25,42.21 20.54,52.11 1.46,113.59 41.48,148.22 41.38,35.81 106.42,18.24 157.08,32.82 33.02,9.5 68.15,77.66 66.18,119.15 5.41,-7.5 3.03,-0.52 5.7,-14.06 0.01,-0.03 5.4,0.59 -2.26,-32.62 -4.71,-20.43 -8.59,-16.67 -6.78,-34.1 28.33,-9.86 85.91,-2.58 79.33,-81.27 -10.33,-10.09 -26.1,-13.59 -41.79,-21.74 -12.72,-6.6 -25.5,-15.94 -36.47,-22.86 -27.95,-17.64 -48.07,-31.88 -65.16,-59.52 -29.64,-47.95 -41.85,-147.44 -22.91,-203.93 72.39,-4.28 75.95,62.02 98.71,116.58 14.22,34.09 69.7,90.49 92.12,114.59l21.87 -3.7c-43.73,-186.79 -10.6,-140.71 -5.93,-166.09 -30.3,-25.09 -17.8,-19.2 -62.2,-38.43 -28.18,-12.2 -41.36,-20.3 -47.94,-53.28 -8.36,-41.95 -6.6,-134.69 9.79,-172.26 13.03,-29.88 29.17,-37.3 40.77,-60.29 12.4,-24.53 11.9,-47.16 28.38,-66.54 30.47,-35.82 48.23,2.45 104.16,-92.11l-114.74 13.08z"/>
   <path class="fil1" d="M2206.16 1834.22c-9.89,6.2 -53.42,26.88 -61.57,33.67 -18.5,15.44 -22.99,52.85 -9.72,73.71 90.26,-6.38 136.78,-29.15 238.31,-19.46 273.72,26.11 214.68,174.01 -19.93,115.05 -31.26,-7.87 -166.74,-52.24 -183.18,-65.11 86.94,6.27 298.32,81.49 372.28,33.56 -10.35,-46.63 -121.13,-62.25 -179.68,-67.03 -78.89,-6.45 -157.31,17.45 -227.8,8.03 -9.58,7.06 -28.85,47.69 -33.58,60.83 70.22,56.48 13.27,180.75 342.06,200.48l54.55 4.28c34.87,7.84 -29.76,-9.75 9.33,2.72l-219.95 -8.49c7.26,0.33 63.98,31.59 83.09,39.17l195.32 65.7c30.65,8.55 85.2,16.99 107.38,25.75 -88.44,2.27 -258.73,-58.98 -336.97,-86.8 -142.31,-50.6 -88.39,-6.56 -195.92,-124.49 -16.03,-17.59 -24.34,-53.09 -40.4,-73.75 0.74,34 13.97,37.43 13.89,55.91 -0.06,14.89 -18.04,31.87 -27.14,46.91 29.95,10.2 123.64,161.02 231.57,232.12 49.95,32.9 98.23,61.77 172.68,59.06 83.07,-3.04 154.93,5.38 233.69,3.63l5.58 -19.59c-54.52,-47.53 -8.31,-149.52 56.27,-163.15 11.77,-2.48 5.76,-2.33 12.5,1.46 31.59,-18.22 48.5,-37.29 74.5,-63.21 26.35,-26.27 42.67,-57.08 32.4,-108.72 -12.68,-63.65 -72.54,-140.04 -106.51,-182.14 -13.01,0.44 -136.82,-36.52 -153.59,-44.81 -46.33,-22.89 -81.41,-51.5 -124.84,-76.9 -76.54,-44.77 -305.31,97.3 -314.62,41.61z"/>
   <path class="fil1" d="M2075.01 1646.11c73.91,66.68 97.76,6.41 123.87,106.94 1.24,-1.04 2.75,-2.56 3.54,-3.31 33.74,-32.19 104.34,-90.46 103.46,-133.74 -56.75,-7.45 -93.02,44.68 -159.17,6.98 17.29,-17.27 6.78,-3.04 47.44,0.17 49.55,3.92 99.34,-45.61 125.75,-15.09 23.47,38.45 -18.07,92.11 -36.12,108.24l-80.04 71.94c16.74,14.36 25.29,20.25 30.9,39.96 77.1,-14.68 226.09,-84.04 297.52,-47.16 40.03,20.67 69.26,50.72 117.27,66.89 46.87,15.79 107.38,18.56 143.63,41.55 20.54,-53.98 70.68,-63.06 92.03,-123.5 10.84,-30.69 11.58,-61.25 0.04,-88.55 -9.46,-22.38 -24.19,-57.43 -38.27,-72.3 -84.03,26.66 -109.5,30.17 -184.23,-19.44 -57.35,-38.08 -143.02,-54.24 -101.45,-119.87 27.39,-43.26 66.94,-50.52 45.68,-198.26 -19.85,-137.94 -61.05,-115.05 -92.49,-150.24 -19.61,-16.37 -37.63,-18.9 -58.42,-37.23 -31.84,-28.09 -22.86,-19.23 -69.61,-31.01 0.78,8.55 -10.33,81.21 -16.11,95.13 -8.24,19.8 -30.99,48.04 -44.27,68.59 -64.99,100.61 -40.26,97.7 -65.56,159.61 -44,107.7 -163.08,129.82 -185.39,273.7z"/>
   <path class="fil1" d="M2243.03 1051.39c-11.91,25.11 -31.37,47.4 -46.21,73.77 -36.04,64.04 -88.1,181.78 -114.55,221.43 -0.63,-0.79 -16.91,3.37 1.73,-31.33 35.89,-66.81 83.54,-158.84 102.77,-228.38 -33.35,33.01 -32.77,64.62 -59.67,92.63 -21.74,-23.05 0.81,-91.19 -95.66,-107.33 -62.4,-10.43 -155.15,15.54 -181.62,8 -34.76,26.95 -51.43,-23.52 -88.81,-37.5 -88.13,71.26 -34.87,22.62 -82.01,51.18 -36.21,21.95 -25.83,47.74 -43.62,81.12 -25.02,46.92 -44.81,-1.32 -53.54,76.69 -29.39,262.51 51.27,143.3 127.06,243.5l85.31 140.46c8.19,23.32 10.7,9.39 -2.76,15.12 1.27,1.34 3.38,1.22 4.16,3.66 1.02,3.17 83.89,59.95 139.67,19.35 -30.72,-16.19 -40.03,-33.03 -58.47,-67.67 -48.17,-90.5 -83.11,-96.29 -60.1,-220.02 3.09,-16.61 6.63,-32.72 16.95,-45.52 -7.82,82.19 -31.01,124.42 10.73,190.85 23.52,37.45 62.74,111.69 94.15,129.5 -2.8,-51.12 -73.9,-118.67 -63.6,-199.09 6.57,-51.25 55.33,-157.81 93.75,-170.72 29.12,27.54 19.95,54.75 3.09,89.74 -10.05,20.85 -29.19,72.15 -38.35,84.61 -0.48,-59.72 48.28,-85.37 36.2,-155.4 -29.26,20.58 -77.86,153.99 -77.92,180.31 -0.07,28.04 23.85,71.05 34.23,96.16 6.67,16.15 11.97,30.61 19.16,46.17 18.93,41.05 13.8,30.99 7.33,43.07 37.17,-12.82 36.1,13.31 63.72,27.15 25.29,-8.04 33.04,-13.08 41.45,-35.93 -44.98,-75.96 127.86,-216.04 169.41,-286.3 18.61,-31.49 17.76,-55.08 28.15,-90.43 31.23,-106.35 80.15,-107.45 105.18,-241.66 -20.21,-9.14 -10.75,2.09 -25.01,-12.68 -38.6,14.86 -50.87,-4.54 -90.19,14.31 -0.28,0.13 -1.46,0.71 -2.11,1.18z"/>
   <path class="fil2" d="M1742.01 1649.53l-11.12 1.97 -32.19 7.69 -22.62 -1.06 -21.87 3.7 -5.13 5.08c-2.41,15.24 -4.95,26.26 -8.65,41.49 -0.54,2.22 -4.7,17.24 -5.15,18.53 -3.95,11.17 -3.56,9.06 -5.57,11.78 6.58,78.69 -51,71.41 -79.33,81.27 -1.81,17.43 2.07,13.67 6.78,34.1 7.66,33.21 2.27,32.59 2.26,32.62 -2.67,13.54 -0.29,6.56 -5.7,14.06l0.48 17.11c-5.03,29.94 -2.65,12.51 -12.46,21.9l-12.84 4.19c5.34,6.9 4.8,10.04 22.54,17.5 7.14,3 20.15,5.59 27.51,7.59 18.51,5.02 36.24,9.09 52.55,18.62 17.77,10.38 23.86,19.4 31.84,39.24 23.51,58.38 1.11,53.02 -2.57,55.18l1.6 3.71c13.05,15.47 13.18,8.47 26.56,22.24 34.56,35.59 -5.27,22.21 57.42,49.65l32.92 20.69c65.66,25.89 100.44,43.02 183.96,40.91 7.68,-1.27 10.1,-3.07 18.04,-1.45 10.03,2.07 13.34,5.04 17.02,7.15 32.17,9.15 44.22,16.88 62.37,39.55 25.13,31.4 22.32,44.08 54.06,57.83 8.12,-43.18 19.38,-26.28 42.18,-48.84 -30.49,-32.31 -76.38,-77.38 -70.37,-118.67 9.1,-15.04 27.08,-32.02 27.14,-46.91 0.08,-18.48 -13.15,-21.91 -13.89,-55.91l1.51 -44.57c4.73,-13.14 24,-53.77 33.58,-60.83l0 -5.04c-13.27,-20.86 -8.78,-58.27 9.72,-73.71 8.15,-6.79 51.68,-27.47 61.57,-33.67l28.48 -6.02c-5.61,-19.71 -14.16,-25.6 -30.9,-39.96 -15.94,-33.07 -20.27,-69.31 -51.55,-84.08 -36.86,-17.39 -71.22,-12.04 -77.18,-58.05l-17.41 20.86c-8.41,22.85 -16.16,27.89 -41.45,35.93 -27.62,-13.84 -26.55,-39.97 -63.72,-27.15l-17.15 -1.99c-55.78,40.6 -138.65,-16.18 -139.67,-19.35 -0.78,-2.44 -2.89,-2.32 -4.16,-3.66 -6.2,-16.44 -6.97,-13.73 -25.97,-19.61 -11.1,17.95 -0.89,9 -23.47,18.39z"/>
   <path class="fil1" d="M1577.53 2648.68c37,63.8 29.28,97.6 92.66,125.06 28.3,12.26 157.99,33.74 182.09,27.28 -0.32,-58.44 -4.41,-85.15 -11.21,-138.06 -5.09,-39.64 2.07,-92.42 4.68,-134.13 3.61,-57.64 -2.42,-223.42 70.55,-210.03 17.91,8.2 79.93,186.49 82.79,199.73l-28.72 -38.88c-8.75,-16.07 -13.81,-28.38 -20.23,-45.09 -13,-33.85 -22.53,-86.99 -46.73,-84.25 -29.23,15.63 -26.98,67.95 -30.71,100.57 -4.38,38.27 -8.54,74.39 -12.44,112.68 -17.98,176.48 19.72,127.64 12.73,227.1 14.88,7.71 35.04,16.82 53.62,23.24 41.05,14.17 59.67,5.85 70.75,2.66 1.51,-0.44 3.65,-1.13 5.34,-2.01 -15.2,-12.12 -9.49,0.42 -1.27,-15.19 5.02,-9.54 18.01,-11.47 24.82,-46.76 5.78,-29.93 1.7,-62.56 3.22,-93.35 5.12,-103.54 113.43,-284.41 7.35,-394.63 -44.43,-46.16 -67.8,-27.74 -38.53,-39.63 -3.68,-2.11 -6.99,-5.08 -17.02,-7.15 -7.94,-1.62 -10.36,0.18 -18.04,1.45 -51.9,52.18 -139.52,-11.36 -172.51,-12.43 -135.36,-4.36 -127.94,223.79 -144.26,290.22 -6.94,28.26 -41.69,133.87 -68.93,151.6z"/>
   <path class="fil1" d="M2227.03 2810.97l105.21 -39.74c25.9,-29.79 49.08,-19.8 77.1,-51.17 36.37,-40.7 -9.2,-9.8 64.2,-71.5 -37.31,-4.79 -54.5,-13.67 -70.11,12.3l-15 38.71c-15.11,24.07 -7.26,7.44 -10.41,6.08 -4.07,-9.05 -1.03,-58.65 5.6,-69.99 44.46,-67.88 153.17,52.59 297.39,-29 13.15,-22.07 32.28,-102.91 36.34,-126.23 -218.91,0.24 -396.23,3.85 -533.05,-171.6 -60.88,7.3 -53.81,55.52 -62.45,111.56 -30.22,195.99 -17.97,154.46 50.58,272.32 22.22,38.22 40.81,74.09 54.6,118.26z"/>
   <path class="fil3" d="M1998.29 2224.99c-29.27,11.89 -5.9,-6.53 38.53,39.63 106.08,110.22 -2.23,291.09 -7.35,394.63 -1.52,30.79 2.56,63.42 -3.22,93.35 -6.81,35.29 -19.8,37.22 -24.82,46.76 -8.22,15.61 -13.93,3.07 1.27,15.19l25.95 -7.54c18.27,-62.23 21.74,-58.81 22.46,-136.07 0.26,-28.13 6.14,-84.17 20.75,-110.62 8.71,-15.78 4.02,-7.9 12.12,-16.39 0.65,110.97 85.5,143.42 121.09,265.75l21.96 1.29c-13.79,-44.17 -32.38,-80.04 -54.6,-118.26 -68.55,-117.86 -80.8,-76.33 -50.58,-272.32 8.64,-56.04 1.57,-104.26 62.45,-111.56 136.82,175.45 314.14,171.84 533.05,171.6l7.12 -30.76c-78.76,1.75 -150.62,-6.67 -233.69,-3.63 -74.45,2.71 -122.73,-26.16 -172.68,-59.06 -107.93,-71.1 -201.62,-221.92 -231.57,-232.12 -6.01,41.29 39.88,86.36 70.37,118.67 -22.8,22.56 -34.06,5.66 -42.18,48.84 -31.74,-13.75 -28.93,-26.43 -54.06,-57.83 -18.15,-22.67 -30.2,-30.4 -62.37,-39.55z"/>
   <path class="fil4" d="M2825.76 529.11c-8.45,25.35 -179.88,299.84 -198.47,320.44l-35.23 -14.83c8.93,23.36 88.05,64.33 92.62,63.27 12.4,-2.87 -6.28,-11.1 -14.05,-24.74 23.4,-48.34 106.89,-196.04 180.97,-165.37 76.38,31.61 -19.08,135.22 -72.25,228.66 -32.23,4.48 -13.36,-14.79 -34.6,4.84 27.98,11.64 65.93,38.16 94.42,54.45 -0.93,-20.69 -2.99,-11.09 -21.66,-27.65 7.72,-42.93 85,-126.62 100.6,-178.11 13.04,-43.04 -7.02,-77.33 -36.74,-93.85 -44.29,-24.63 -72.98,-2.23 -107.75,13.45 19.71,-53.72 73.42,-113.43 99.3,-168.69l-34.5 -21.46c-18.7,-11.38 -16.81,-13.97 -38.06,-19.45l25.4 29.04z"/>
   <path class="fil4" d="M2175.77 444.4c-1.7,16.44 -41.29,225.74 -56.34,234.86 -12.5,7.59 -0.36,0.47 -29.84,3.43 -0.91,0.09 -2.93,0.17 -4.27,0.69l108.09 28.69c-3.06,-11.45 2.3,-4.12 -16.29,-18 -0.89,-0.65 -2.93,-1.87 -3.68,-2.39 -0.75,-0.54 -2.65,-1.38 -3.75,-2.36 10.53,-73.85 40.12,-214.82 113.41,-214.41 86.1,0.47 31.07,141.17 9.09,241.47l-31.31 9.95 84.1 20.66c32.82,4.41 17.18,3.11 24.84,-4.27l-33.18 -10.38c11.68,-94.27 99.51,-280.79 -41.61,-279.25 -43.81,0.49 -63.77,31.17 -83.43,52.59l12.62 -67.14 -82.88 -13.54c10.4,17.15 5.26,8.92 34.43,19.4z"/>
   <path class="fil4" d="M1790.9 410.45c10,8.05 25.56,7.93 36.52,9.03 -0.27,62.06 -16.87,197.66 11.7,239.1 21.52,31.2 106.76,63.76 151,-44.61l1.09 72.79 82.94 -1.64c-4.89,-9.07 -27.5,-11.79 -33.96,-13.6 -11.2,-49.82 5.72,-195.62 4.07,-259.51 -25.31,1.14 -62.83,-3.73 -81.82,4.37 1.28,0.97 3.54,0.33 4.29,2.22 0.75,1.88 3.32,1.69 4.37,2.04l9.1 3c3.71,0.87 14.55,1.52 18.73,2.07 -0.41,79.98 0.92,232.69 -78.48,237.82 -85.19,5.51 -42.92,-130.13 -47.91,-257.81 -25.21,1.8 -62.74,-3.64 -81.64,4.73z"/>
   <path class="fil4" d="M544.68 1179.65c42.75,32.6 66.05,69.38 44.31,129.61 -87.8,30.15 -107.95,-72.11 -44.31,-129.61zm-95.36 37.73c-21.59,-39.58 -76.9,-21.82 -25.8,-101.02 45.96,-6.01 83.81,18.46 110.57,53.56 -1.08,1.82 -115.12,118.7 -21.62,174.82 35.21,21.14 71.11,7.51 90.56,-21.54 26.3,-39.29 10.02,-68.82 -5.05,-104.32 116.98,53.9 122.37,-55.41 56.83,-75.2 6.32,14.52 3.96,7.03 11.59,17.24 27.06,36.13 17.69,67.03 -55.86,8.36 -27.2,-21.69 -82.38,-70.76 -113.59,-82.23 -60.67,-22.31 -104.09,29.76 -115.42,68.27 -17.4,59.14 46.65,127.84 67.79,62.06z"/>
   <path class="fil3" d="M1676.08 1658.13l22.62 1.06c-6.32,-48.49 -34.7,-92.3 -29.95,-142.45 17.03,28.97 51.49,101.9 62.14,134.76l11.12 -1.97c-13.11,-39.55 -53.08,-96.69 -63.75,-140.41 17.81,21.3 28.95,38.93 44.14,61.51 12.13,18.02 29.5,46.65 43.08,60.51 19,5.88 19.77,3.17 25.97,19.61 13.46,-5.73 10.95,8.2 2.76,-15.12l-85.31 -140.46c-75.79,-100.2 -156.45,19.01 -127.06,-243.5 8.73,-78.01 28.52,-29.77 53.54,-76.69 17.79,-33.38 7.41,-59.17 43.62,-81.12 47.14,-28.56 -6.12,20.08 82.01,-51.18 37.38,13.98 54.05,64.45 88.81,37.5 -92.19,4.55 8.88,-65.84 -106.71,-71.05 -55.93,94.56 -73.69,56.29 -104.16,92.11 -16.48,19.38 -15.98,42.01 -28.38,66.54 -11.6,22.99 -27.74,30.41 -40.77,60.29 -16.39,37.57 -18.15,130.31 -9.79,172.26 6.58,32.98 19.76,41.08 47.94,53.28 44.4,19.23 31.9,13.34 62.2,38.43 -4.67,25.38 -37.8,-20.7 5.93,166.09z"/>
   <path class="fil1" d="M2839.81 1592.08l-89.44 -58.65c-31.87,-17.83 -78.1,-32.39 -86.06,-62.73 -10.52,-40.16 22.88,-70 -1.64,-122.22 -9.95,-21.18 -34.48,-92.5 -49.35,-104.99 12.65,46.88 23.42,89.81 15.16,139.97 -8.97,54.51 -50.97,54.2 -47.65,118.75 20.8,19.94 39.26,19.69 64.91,35.09 18.29,10.98 36.65,29.15 53,41.85 55.5,43.08 71.41,36.79 141.07,12.93z"/>
   <path class="fil4" d="M3106 1025.75c31.19,-14.12 93.79,-62.53 131.06,-14.44 37.52,48.42 -20.01,94.48 -46.1,109.04 -27.68,-26.5 -69.6,-59.04 -84.96,-94.6zm57.38 185.71c-11.23,-5.74 -25.42,0.22 -34.88,1.98 -13.79,2.56 -26.72,2.3 -38.95,-1.42 -57.01,-17.39 -87.55,-89.31 5.85,-170.52 21.67,17.79 35.9,39.76 56.35,60.96l62.92 60.13c140.2,-104.95 -2.91,-265.49 -133,-173.19 -37.51,26.62 -93.86,86.09 -68.47,162.19 21.82,65.41 98.3,102.51 150.18,59.87z"/>
   <path class="fil1" d="M1629.71 1738.71c2.01,-2.72 1.62,-0.61 5.57,-11.78 0.45,-1.29 4.61,-16.31 5.15,-18.53 3.7,-15.23 6.24,-26.25 8.65,-41.49 -23.97,-19.38 -76.13,-69.24 -92.49,-96.66 -27.48,-46.04 -20.66,-105.63 -68.51,-123.78l-10.18 21.43c-49.03,184.68 116.94,228.57 151.81,270.81z"/>
   <path class="fil1" d="M2028.65 2807.01c115.08,-39.67 113.24,-2.71 173.08,6.11l25.3 -2.15 -21.96 -1.29c-35.59,-122.33 -120.44,-154.78 -121.09,-265.75 -8.1,8.49 -3.41,0.61 -12.12,16.39 -14.61,26.45 -20.49,82.49 -20.75,110.62 -0.72,77.26 -4.19,73.84 -22.46,136.07z"/>
   <path class="fil3" d="M1662.37 2085.8l-1.6 -3.71c-7.92,-17.48 -6.02,-0.93 -45.58,45.79l-102.66 110.7c-23.58,20.38 -33.66,36.04 -53.81,52.85 -19.44,16.2 -42.05,28.65 -62.57,44.48 -32.15,24.79 -22.4,23.83 -71.22,35.63 -51.58,12.47 -137.45,20.71 -174.65,44.28 -3.2,25.2 -0.92,62.8 -0.06,89.45 1.24,38.12 6.17,46.98 41.05,53.6l145.21 37.72c-20.88,-8.01 -47.15,-23.32 -77.57,-34.52 -104.52,-38.48 -84.47,-9.32 -92.55,-140.32 45.94,-13.66 143.08,-35.68 192.18,-41.44 -9.46,59.88 8.56,70.94 29.9,111.53 20.66,39.28 13.95,85.62 31.87,111.45 27.91,-157.55 -131.38,-145.05 40.91,-291.47 43.96,-37.35 77.59,-62.29 113.16,-100.37 22.93,-24.54 72.12,-114.93 87.99,-125.65z"/>
   <path class="fil4" d="M667.58 1104.07c0.86,10.75 34.31,47.75 49.16,58.69 167.32,-66.28 111.95,-225.97 3.6,-191.05 -19.8,6.38 -123.98,70.19 -129.76,-9.69 -2.17,-30.01 21.77,-54.48 44.18,-59.71 38.06,-8.87 47.03,19.17 75.19,29.21 -2.62,-27.05 -11.97,-18.29 -44.79,-63.34 -150.99,38.38 -114.86,223.8 19.95,169.29 21.74,-8.79 54.02,-26.77 78.8,-23.17 77.88,11.33 9.41,159.18 -67.41,104.29 -9.88,-7.06 -9.59,-11.83 -22.39,-14.68l-6.53 0.16z"/>
   <path class="fil4" d="M1134.7 763.24l25.45 73.81c175.79,0.81 186.35,-173.8 73.13,-178.09 -28.16,-1.07 -68.37,7.04 -94.29,0.23 -58.45,-15.37 -25.66,-108.46 44.94,-93.47 35.25,7.47 23.97,32.47 49.02,50.03 9.33,-16.6 -13.92,-50.59 -19.2,-73.63 -162.88,-6 -184.19,173.91 -34.26,166.12 27.12,-1.41 65.54,-9.35 84.7,9.27 40.94,39.8 -21.33,114.84 -81.46,93.41 -29.96,-10.68 -22.49,-41.27 -48.03,-47.68z"/>
   <path class="fil4" d="M1645.12 492.31l-9.19 -68.79 -80.79 14.43c4.3,9.19 28.27,7.74 38.39,9l29.5 236.31 -33.82 11.99c15.88,15.65 71.04,1.86 98.13,-1.9l23.51 -12.13c-34.01,-3.64 -16.64,5.94 -40.04,-3.1 -13.46,-31.48 -17.7,-103.67 -17.1,-143.27 0.76,-49.6 10.18,-99.73 57.35,-97.67 39.91,31.44 -3.43,62.66 28.38,71.51 41.35,11.52 35.04,-43.52 21.44,-68.19 -12.63,-22.93 -39.79,-42.95 -75,-22.31 -21.23,12.44 -31.24,41.23 -40.76,74.12z"/>
   <path class="fil4" d="M2613.37 774.46c-26.16,-0.59 -7.86,-1.57 -27.77,15.34 -55.16,46.84 -179.77,5.7 -98.84,-157.94 16,-32.34 61.53,-93.8 115.7,-66.19 53.97,27.51 -7.69,79.1 -0.95,96.83 5.86,15.42 25.53,14.78 38.55,14.44 91.67,-118 -125.95,-207.65 -200.34,-56.39 -87.69,178.3 127.4,260.31 173.65,153.91z"/>
   <path class="fil4" d="M1547.41 636.6l-11.2 30.09c-22.33,78.25 -125.64,91.11 -165.33,-32.39 -41.6,-129.5 35.29,-177.89 73.64,-150.93 22.91,16.12 15.21,47.43 25.76,70.52 79.65,7.43 40.91,-113.68 -56.21,-92.57 -155.79,33.87 -111.28,259.6 10.17,280.18 66.07,11.2 155.56,-50.58 123.17,-104.9z"/>
   <path class="fil5" d="M2057.6 1666.97l17.41 -20.86c22.31,-143.88 141.39,-166 185.39,-273.7 25.3,-61.91 0.57,-59 65.56,-159.61 13.28,-20.55 36.03,-48.79 44.27,-68.59 5.78,-13.92 16.89,-86.58 16.11,-95.13 -23.24,-3.94 -26.75,-14.11 -51.01,-13.18 14.26,14.77 4.8,3.54 25.01,12.68 -25.03,134.21 -73.95,135.31 -105.18,241.66 -10.39,35.35 -9.54,58.94 -28.15,90.43 -41.55,70.26 -214.39,210.34 -169.41,286.3z"/>
   <path class="fil3" d="M1578.76 2647.67l-1.23 1.01c27.24,-17.73 61.99,-123.34 68.93,-151.6 16.32,-66.43 8.9,-294.58 144.26,-290.22 32.99,1.07 120.61,64.61 172.51,12.43 -83.52,2.11 -118.3,-15.02 -183.96,-40.91 -16.27,29.65 -46.18,0.57 -97.19,69.69 -26.27,35.61 -38.34,74.75 -46.87,125.32 -30.78,182.49 -16.36,102.43 -59.89,237.35 -8.59,26.66 -4.2,29.74 3.44,36.93z"/>
   <path class="fil3" d="M2099.78 2052.04c16.06,20.66 24.37,56.16 40.4,73.75 107.53,117.93 53.61,73.89 195.92,124.49 78.24,27.82 248.53,89.07 336.97,86.8 -22.18,-8.76 -76.73,-17.2 -107.38,-25.75l-195.32 -65.7c-19.11,-7.58 -75.83,-38.84 -83.09,-39.17l219.95 8.49c-39.09,-12.47 25.54,5.12 -9.33,-2.72l-54.55 -4.28c-328.79,-19.73 -271.84,-144 -342.06,-200.48l-1.51 44.57z"/>
   <path class="fil3" d="M958.31 2133.22c25.85,17.38 -1.37,-3.54 14.07,26.34l211.86 -40.46c-22.15,28.03 -60.3,31.76 -87.89,57.31 20.08,-2.41 111.07,-57.63 216.79,-83.66 47.76,-11.75 237.36,-14.82 248.5,-47.05l-108.76 -5.22 70.49 -25.95c-1.4,-1.24 -1.93,-10.88 -32.15,-5.92 -8.31,1.36 -25.57,7.29 -32.84,9.65 -23.04,7.45 -42.74,14.48 -66.96,22.08 -99.52,31.24 -248.22,81.13 -348.73,96.93 -42.93,6.75 -52.61,-4.35 -84.38,-4.05z"/>
   <path class="fil3" d="M2134.87 1941.6l0 5.04c70.49,9.42 148.91,-14.48 227.8,-8.03 58.55,4.78 169.33,20.4 179.68,67.03 -73.96,47.93 -285.34,-27.29 -372.28,-33.56 16.44,12.87 151.92,57.24 183.18,65.11 234.61,58.96 293.65,-88.94 19.93,-115.05 -101.53,-9.69 -148.05,13.08 -238.31,19.46z"/>
   <path class="fil3" d="M1554.2 1917.87l-0.48 -17.11c1.97,-41.49 -33.16,-109.65 -66.18,-119.15 -50.66,-14.58 -115.7,2.99 -157.08,-32.82 -40.02,-34.63 -20.94,-96.11 -41.48,-148.22 -18.24,-46.25 -101.54,-36.93 -153.25,-42.21 1.21,1.28 3.12,1.3 3.91,3.58 9.7,28.25 170.88,-12.13 138.86,134.14 -67.66,-25.3 -70.14,-13.67 -140.61,-20.55 -47.29,-4.61 -78.47,-46.9 -104.07,-66.51 -1.61,34.91 68.57,73.11 81.27,76.23 47.24,11.59 91.88,1.52 139.99,20.31 45.92,17.94 29.07,39.6 91.41,68.84 50.15,23.51 85.81,11.76 139.93,20.28 9.96,11.92 25.83,43.24 33.42,61.46 18.3,44.01 11.33,56.56 34.36,61.73z"/>
   <path class="fil5" d="M2332.24 2771.23l53.69 -9.28c11.84,-14.66 34.79,-21.66 54.34,-40.46 14.16,-13.62 32.68,-32.29 52.91,-42.25 45.47,-22.39 108.05,-10.63 163.9,-32.18 17,-11.63 20.88,-13.63 23.93,-40.4 -144.22,81.59 -252.93,-38.88 -297.39,29 -6.63,11.34 -9.67,60.94 -5.6,69.99 3.15,1.36 -4.7,17.99 10.41,-6.08l15 -38.71c15.61,-25.97 32.8,-17.09 70.11,-12.3 -73.4,61.7 -27.83,30.8 -64.2,71.5 -28.02,31.37 -51.2,21.38 -77.1,51.17z"/>
   <path class="fil3" d="M2846.86 1605.13c-1.39,-21.39 1.28,-9.1 -7.05,-13.05 -69.66,23.86 -85.57,30.15 -141.07,-12.93 -16.35,-12.7 -34.71,-30.87 -53,-41.85 -25.65,-15.4 -44.11,-15.15 -64.91,-35.09 -3.32,-64.55 38.68,-64.24 47.65,-118.75 8.26,-50.16 -2.51,-93.09 -15.16,-139.97 -3.76,-14.52 -20.52,-74.13 -26.7,-86.37 -12.4,-24.56 -39.93,-35.49 -72.25,-39.8 31.44,35.19 72.64,12.3 92.49,150.24 21.26,147.74 -18.29,155 -45.68,198.26 -41.57,65.63 44.1,81.79 101.45,119.87 74.73,49.61 100.2,46.1 184.23,19.44z"/>
   <path class="fil3" d="M1935.28 1673.76l17.15 1.99c6.47,-12.08 11.6,-2.02 -7.33,-43.07 -7.19,-15.56 -12.49,-30.02 -19.16,-46.17 -10.38,-25.11 -34.3,-68.12 -34.23,-96.16 0.06,-26.32 48.66,-159.73 77.92,-180.31 12.08,70.03 -36.68,95.68 -36.2,155.4 9.16,-12.46 28.3,-63.76 38.35,-84.61 16.86,-34.99 26.03,-62.2 -3.09,-89.74 -38.42,12.91 -87.18,119.47 -93.75,170.72 -10.3,80.42 60.8,147.97 63.6,199.09 -31.41,-17.81 -70.63,-92.05 -94.15,-129.5 -41.74,-66.43 -18.55,-108.66 -10.73,-190.85 -10.32,12.8 -13.86,28.91 -16.95,45.52 -23.01,123.73 11.93,129.52 60.1,220.02 18.44,34.64 27.75,51.48 58.47,67.67z"/>
   <path class="fil4" d="M3041.72 844.19l-154.2 180.84 -34.34 -19.73c10.56,26.66 70.5,73.4 96.39,83.46 -9.67,-20.92 -15.42,-17.84 -23.9,-36.55 26.97,-32.54 51.15,-61.27 80.77,-96.41 25.68,-30.46 58.43,-66.23 79.89,-100.35 -16.52,-14.32 -47.7,-42.51 -68.3,-48.79 10.64,20.98 16.07,15.5 23.69,37.53z"/>
   <path class="fil3" d="M1528.9 1943.96l12.84 -4.19c-16.83,-21.22 9.11,0.75 -13.08,-9.08 -0.88,-0.38 -19.29,-5.37 -19.41,-5.4l-156.84 -62.2c-36.41,-15.66 -126.48,-92.45 -175.09,-78.46 -32.52,9.35 -83.7,57.03 -96.19,77.04 60.42,-17.9 89.96,-112.16 203.86,-19.91 46.8,37.91 48.79,28.93 63.71,40.17 -27.24,16.77 -102.27,39.72 -138.87,48.09 -95.42,21.82 -64.27,17.29 -132.26,-26.45 32.74,83.66 179.81,44.47 227.41,20.94 149.57,-73.95 116.67,14.25 223.92,19.45z"/>
   <path class="fil6" d="M1852.28 2801.02l20.71 -10.36c6.99,-99.46 -30.71,-50.62 -12.73,-227.1 3.9,-38.29 8.06,-74.41 12.44,-112.68 3.73,-32.62 1.48,-84.94 30.71,-100.57 24.2,-2.74 33.73,50.4 46.73,84.25 6.42,16.71 11.48,29.02 20.23,45.09l28.72 38.88c-2.86,-13.24 -64.88,-191.53 -82.79,-199.73 -72.97,-13.39 -66.94,152.39 -70.55,210.03 -2.61,41.71 -9.77,94.49 -4.68,134.13 6.8,52.91 10.89,79.62 11.21,138.06z"/>
   <path class="fil3" d="M2234.64 1828.2l-28.48 6.02c9.31,55.69 238.08,-86.38 314.62,-41.61 43.43,25.4 78.51,54.01 124.84,76.9 16.77,8.29 140.58,45.25 153.59,44.81l-6.15 -24.84c-36.25,-22.99 -96.76,-25.76 -143.63,-41.55 -48.01,-16.17 -77.24,-46.22 -117.27,-66.89 -71.43,-36.88 -220.42,32.48 -297.52,47.16z"/>
   <path class="fil2" d="M3106 1025.75c15.36,35.56 57.28,68.1 84.96,94.6 26.09,-14.56 83.62,-60.62 46.1,-109.04 -37.27,-48.09 -99.87,0.32 -131.06,14.44z"/>
   <path class="fil3" d="M2075.01 1646.11c5.96,46.01 40.32,40.66 77.18,58.05 31.28,14.77 35.61,51.01 51.55,84.08l80.04 -71.94c18.05,-16.13 59.59,-69.79 36.12,-108.24 -26.41,-30.52 -76.2,19.01 -125.75,15.09 -40.66,-3.21 -30.15,-17.44 -47.44,-0.17 66.15,37.7 102.42,-14.43 159.17,-6.98 0.88,43.28 -69.72,101.55 -103.46,133.74 -0.79,0.75 -2.3,2.27 -3.54,3.31 -26.11,-100.53 -49.96,-40.26 -123.87,-106.94z"/>
   <path class="fil3" d="M1138.01 1360.65c15.74,-22.59 4.26,-39.51 77.01,-38.79 34.65,0.34 78.38,15.02 102.34,-8.45 15.13,-14.82 37.55,-80.99 57.57,-114.23 10.84,-18.01 16.39,-18.81 25.16,-36.84 -73.27,43.57 -71.61,89.8 -116.45,117.73 -24.79,15.45 -68.95,10.04 -100.27,18.38 -37.24,9.91 -54.59,43.92 -45.36,62.2z"/>
   <path class="fil2" d="M544.68 1179.65c-63.64,57.5 -43.49,159.76 44.31,129.61 21.74,-60.23 -1.56,-97.01 -44.31,-129.61z"/>
   <path class="fil6" d="M1629.71 1738.71c-34.87,-42.24 -200.84,-86.13 -151.81,-270.81l10.18 -21.43c47.85,18.15 41.03,77.74 68.51,123.78 16.36,27.42 68.52,77.28 92.49,96.66l5.13 -5.08c-22.42,-24.1 -77.9,-80.5 -92.12,-114.59 -22.76,-54.56 -26.32,-120.86 -98.71,-116.58 -18.94,56.49 -6.73,155.98 22.91,203.93 17.09,27.64 37.21,41.88 65.16,59.52 10.97,6.92 23.75,16.26 36.47,22.86 15.69,8.15 31.46,11.65 41.79,21.74z"/>
   <path class="fil7" d="M906.47 3052.48c15.43,2.85 68.38,-39.1 88.67,-49.01 -12.78,29.06 -41.84,62.99 -43.57,96.41 30.5,-5.76 46.49,-22.33 68.69,-36.4 24.07,-15.27 52,-29.61 55.99,-45.82 -28.16,-4 -59.79,37.44 -97.59,53.8l49.16 -98.26c-43.77,4.35 -67.59,47.45 -100.43,51.98 22.63,-54 56.69,-85.74 38.55,-102.66 -16.57,15.05 -25.71,42.54 -36.18,62.36 -14.81,28.01 -31.9,49.02 -23.29,67.6z"/>
   <path class="fil1" d="M2385.93 2761.95c51.22,-14.15 90.42,-32.67 137.91,-51.96 43.69,-17.75 105.66,-30.49 133.24,-62.93 -55.85,21.55 -118.43,9.79 -163.9,32.18 -20.23,9.96 -38.75,28.63 -52.91,42.25 -19.55,18.8 -42.5,25.8 -54.34,40.46z"/>
   <path class="fil2" d="M1364.86 3216.49c-21.54,10.74 -33.63,30.65 -36.63,60.06 -3.47,33.83 16.31,60.32 46.72,41.03 41.23,-26.16 53.66,-132.91 -10.09,-101.09z"/>
   <path class="fil2" d="M2197.14 3378.63c88.3,15.8 47.66,-91.41 19.75,-107.76 -32.86,-19.25 -72.68,30.81 -19.75,107.76z"/>
   <path class="fil2" d="M1778.81 3417.59c43.33,-36.12 33.06,-124.76 -14.43,-113.99 -38.62,8.76 -55.1,121.05 14.43,113.99z"/>
   <path class="fil2" d="M2745.96 3115.64c18.28,-8.68 20.05,-13.67 34.86,-27.34 9,-18.22 -24.78,-129.08 -100.62,-55.3l65.76 82.64z"/>
   <path class="fil7" d="M2680.2 3033c75.84,-73.78 109.62,37.08 100.62,55.3 -14.81,13.67 -16.58,18.66 -34.86,27.34l-65.76 -82.64zm-19.15 -8.58c6.5,30.89 22.5,38.2 38.98,60.41 12.27,16.55 31.85,41.24 45.93,50.95 43.94,-18.93 69.75,-64.21 33.46,-112.27 -45.81,-60.69 -75.93,-22.92 -118.37,0.91z"/>
   <path class="fil7" d="M2490.13 3157.6c28.57,-22.34 43.31,-32.83 69.42,-9.85 0.65,32.68 -18.74,39.07 -45,51.69 -16.47,-12.95 -20.84,-24 -24.42,-41.84zm-20.43 -4.12l56.12 105.47c9.69,11.98 3.69,8.18 19.88,12.73 -6.97,-27.67 -15.24,-32.05 -24.59,-54.74l28.3 -20.23c34.47,10.49 35.51,34.83 70.84,31.2 -9.88,-16.77 -34.82,-30.2 -54.03,-38 11.49,-38.83 17.5,-35.6 -8.93,-67.29 -37.28,-5.74 -66.76,12.32 -87.59,30.86z"/>
   <path class="fil7" d="M1299.3 3233.18c-20.26,-7.97 -31.41,-19.05 -54.58,-22.46 9.83,31.51 13.97,6.82 35.39,36.33 -91.36,66.17 -97.91,-56.47 -43.97,-86.62 49.48,-27.66 52.29,26.13 76.04,38.31 6.55,-32.06 -23.64,-58.81 -55.53,-58.75 -33,0.06 -56.71,31.31 -65.92,58.4 -31.07,91.36 91.56,113.22 108.57,34.79z"/>
   <path class="fil3" d="M2186.77 1086.88c-19.23,69.54 -66.88,161.57 -102.77,228.38 -18.64,34.7 -2.36,30.54 -1.73,31.33 26.45,-39.65 78.51,-157.39 114.55,-221.43 14.84,-26.37 34.3,-48.66 46.21,-73.77 -36.03,9.96 -34.53,16.82 -56.26,35.49z"/>
   <path class="fil4" d="M1132.4 872.27c-35.82,18.45 -68.79,39.19 -102.04,59.53 -23.97,14.66 -68.21,34.62 -67.12,48.29 2.77,34.81 72.08,-21.71 122.46,-52.46 17.23,-10.51 28.83,-17.56 48.26,-29.11 31.21,-18.55 26.49,-40.69 -1.56,-26.25z"/>
   <path class="fil8" d="M1922.37 3414.88l-36.27 9.9c-41.77,-39.48 -13.35,-76 -25.3,-118.7l-4.85 -10.12c-9.5,12.72 -4.94,-13.39 -9.83,21.43 -0.23,1.58 0.64,21.01 0.74,24.17 1.19,35.51 -7.94,104.61 56.42,96.42 50.54,-6.43 45.89,-92.51 40.88,-126.53 -4.07,-27.59 0.07,-10.64 -11.07,-16.64 -15.95,24.78 -1.88,89.4 -10.72,120.07z"/>
   <path class="fil7" d="M1778.81 3417.59c-69.53,7.06 -53.05,-105.23 -14.43,-113.99 47.49,-10.77 57.76,77.87 14.43,113.99zm-20.62 -123.92c-73.61,29.84 -44.66,168.54 29.52,134.44 51.18,-23.54 46.47,-165.24 -29.52,-134.44z"/>
   <path class="fil7" d="M2197.14 3378.63c-52.93,-76.95 -13.11,-127.01 19.75,-107.76 27.91,16.35 68.55,123.56 -19.75,107.76zm-4.35 -123.14c-73.49,22.66 -27.39,162.26 40.17,136.95 60.5,-22.67 26.98,-157.65 -40.17,-136.95z"/>
   <path class="fil7" d="M1364.86 3216.49c63.75,-31.82 51.32,74.93 10.09,101.09 -30.41,19.29 -50.19,-7.2 -46.72,-41.03 3,-29.41 15.09,-49.32 36.63,-60.06zm57.03 4.94c-70.27,-68.7 -124.74,33.22 -106.52,85.1 21.5,61.18 122.17,30.16 106.52,-85.1z"/>
   <path class="fil7" d="M1013.15 3148.19c21.23,11.61 47.64,35.72 70.54,43.99 -2.9,-30.52 -33.99,-30.97 -51.18,-52.38l21.87 -35.8c33.6,12.78 28.51,20.87 41.44,25.18 27.23,9.06 2.88,4.05 13.73,-2.64 -0.43,-12.38 -28.02,-20.08 -41.51,-41.2l21.94 -30.9c27.38,7.14 46.68,36.21 68.29,34.68 1.73,-19.46 -49.5,-48.78 -70.18,-57.23 -16.7,35.95 -66.15,81.55 -74.94,116.3z"/>
   <path class="fil9" d="M2373.27 3199.14l52.98 123.1c18.65,-2.71 26.79,-7.35 42.17,-15 5.49,-2.73 16.22,-7.29 19.85,-9.43 12.04,-7.13 9.52,-3.9 14.71,-15.61 -19.28,-6.08 -47.23,18.52 -69.3,21.54l-16.79 -38.77c39.68,-28.2 42.35,-6.2 49.27,-36.07l-59.33 19.84 -16.25 -43.12c9.63,-4.56 19.79,-9.66 31.75,-15.43 25.92,-12.5 21.29,-4.08 32.27,-20.72 -17.44,-9.85 -64.13,15.44 -81.33,29.67z"/>
   <path class="fil7" d="M2573.45 3092.34c9.96,23.16 61.61,101.46 77.57,112.19 14.92,-7.34 20.48,-12.62 36.05,-22.63 37.71,-24.24 23.87,-11.52 30.83,-31.03 -35.08,5.24 -36.48,25.14 -68.58,36.11l-21.8 -34.82c15.03,-17.82 31.34,-21.29 44.54,-39.59 -15.45,-10.19 -32.55,13.45 -59.23,22.84l-20.17 -36.68c17.58,-22.49 55.35,-30.51 53.73,-48.07 -1.05,-0.4 -2.76,-2.35 -3.16,-1.21l-69.78 42.89z"/>
   <path class="fil7" d="M2344.44 3327.09c-15.93,-8.36 -3.25,1.15 -13.59,-8.66l-47 -60.48c-17.77,-22.02 -2.58,-17.71 -30.24,-17.82 8.72,22.8 31.27,41.38 45.82,61.39 29.46,40.52 35.5,53.35 58.97,50.04 2.39,-34.93 7.94,-122.04 -4.05,-145.28 -12.25,7.82 -7.66,-2.86 -10.71,16.6l0.8 104.21z"/>
   <path class="fil7" d="M2138.52 3380.05c-27.78,21.45 -53.26,39.93 -77.2,-0.71 -21.31,-36.18 -7.17,-69.72 20.1,-87.33 31.83,1.32 24.28,6.99 49.3,15.08 -9.23,-60.35 -111.71,-33.12 -91.44,57.9 11.47,51.49 55.15,65.45 91.46,43.63 31.5,-18.93 7.81,-28.53 7.78,-28.57z"/>
   <path class="fil3" d="M2730.05 2430.08c-0.3,-78.12 24.56,-126.31 68.77,-161.69 -6.74,-3.79 -0.73,-3.94 -12.5,-1.46 -64.58,13.63 -110.79,115.62 -56.27,163.15z"/>
   <path class="fil6" d="M1523.7 1359.81c-18.92,-75 -58.98,-123.57 -65.01,-156.64 13.42,-9.75 15.05,-14.44 26,-24.45 15.85,-14.49 15.36,-13.43 30.02,-29.85 22.65,-25.36 48.03,-10.38 72.47,-36.01 -29.05,5.68 -62.73,7.51 -86.45,22.52 -13.24,8.39 -48.13,44.2 -50.41,64.25 -2.36,20.89 34.58,81.54 50.91,123.25 2.52,6.42 5.49,15.77 8.38,21.17 8.94,16.7 0.74,7.19 14.09,15.76z"/>
   <path class="fil4" d="M876.78 954.9c-15.06,7.82 -8.02,-4.59 -15.8,15.9 -4.16,10.96 -2.87,20.64 1.32,29.36 8.24,17.17 33.97,24.35 52.31,12.12 29.93,-19.94 5.92,-80.12 -37.83,-57.38z"/>
   <path class="fil9" d="M1630.48 3414.15c18.46,-5.5 5.11,10.31 14.9,-9.98 5.36,-11.14 -0.88,-40.76 15.2,-62.16 15.41,-20.52 35.51,-27.69 51.85,-54.52 -24.32,-1.15 -22.27,5.64 -34.14,19.07 -8.71,9.85 -18.21,17.26 -30.01,24.27 -31.85,-48.43 -8.93,-62.18 -45.05,-59.56 7.51,18.41 22.05,44.58 28.52,62.8 11.87,33.4 -11.34,53.65 -1.27,80.08z"/>
   <path class="fil9" d="M1451.33 3228.8c9.35,21.12 10.8,8.33 31.06,23.74l-35.44 118.61c23.27,-7.8 10.95,13.75 32.6,-56.15 6.03,-19.48 9.55,-42.86 20.4,-59.6 18.89,3.37 21.07,9.32 36.26,3.07 -11.6,-20.85 -74.16,-33.16 -84.88,-29.67z"/>
   <path class="fil1" d="M1698.7 1659.19l32.19 -7.69c-10.65,-32.86 -45.11,-105.79 -62.14,-134.76 -4.75,50.15 23.63,93.96 29.95,142.45z"/>
   <path class="fil10" d="M2490.13 3157.6c3.58,17.84 7.95,28.89 24.42,41.84 26.26,-12.62 45.65,-19.01 45,-51.69 -26.11,-22.98 -40.85,-12.49 -69.42,9.85z"/>
   <path class="fil3" d="M912.49 2046.56l57.88 12.31 -151.98 -109.97c9.52,32.03 68.46,79.37 94.1,97.66z"/>
   <path class="fil1" d="M1742.01 1649.53c22.58,-9.39 12.37,-0.44 23.47,-18.39 -13.58,-13.86 -30.95,-42.49 -43.08,-60.51 -15.19,-22.58 -26.33,-40.21 -44.14,-61.51 10.67,43.72 50.64,100.86 63.75,140.41z"/>
   <path class="fil4" d="M3154.29 781.66c1.26,-26.55 -5.83,-22.12 -22.72,-36.27 -44.9,3.88 -49.37,64.17 11.11,55.06 8.75,-9.86 5.63,-6.06 11.61,-18.79z"/>
   <path class="fil6" d="M1483.28 1039.86c42.33,39.99 112.95,13.67 145.09,-17.65 -60.51,3.35 -65.93,22.15 -145.09,17.65z"/>
   <path class="fil3" d="M1161.82 1205.05c7.29,12.33 10.53,11.15 29.19,12.24 14.7,0.86 31.84,0.97 44.89,-3.09 28.76,-8.95 35.94,-23.43 47.64,-43.22 -18.35,3.92 -32.94,13.8 -53.52,19.88 -20.35,6.01 -47.89,11.65 -68.2,14.19z"/>
  </g>
 </g>
</svg>
